<svg width="160" height="160" viewBox="0 0 160 160" fill="none" xmlns="http://www.w3.org/2000/svg">
<path d="M41.1034 92.6571L80 151C91.8851 133.173 114.845 99.9499 119.707 91.0364C127 75.6404 125.379 79.692 127 68.3475C125.379 48.8998 121.328 44.8483 117.276 39.9863C122.138 26.2109 120.517 16.4871 119.707 9.19423C101.879 7.57359 96.2069 16.4871 91.3448 21.349C81.6207 18.9181 72.7069 19.7284 66.2241 21.349C59.7414 11.6252 48.3966 9.19423 38.6724 9.19423C37.8621 24.5903 38.6724 33.5038 41.9138 39.9863C34.6207 50.5205 33 57.8133 33 68.3475C33 76.7748 38.4023 88.0652 41.1034 92.6571Z" fill="#CE5100"/>
<path d="M92.0859 128.192C93.5459 128.029 94.882 127.487 96.059 126.746L80.0106 149.614L61.6275 122.04C63.4512 119.99 66.4901 117.662 69.9731 116.965C71.785 116.603 73.7162 116.681 75.6731 117.467C77.6318 118.254 79.647 119.761 81.6037 122.305C85.271 127.072 88.8909 128.548 92.0859 128.192Z" fill="white" stroke="#CE5100"/>
</svg>
